<svg xmlns="http://www.w3.org/2000/svg" width="686" height="686" viewBox="0 0 686 686" role="img" aria-label="QR-Code zur Geburtstagseinladung">
  <defs>
    <linearGradient id="g" x1="0" y1="0" x2="1" y2="1">
      <stop offset="0" stop-color="#e0218a"/>
      <stop offset="0.5" stop-color="#9b30d4"/>
      <stop offset="1" stop-color="#5a2fd0"/>
    </linearGradient>
  </defs>
  <rect width="686" height="686" rx="28" fill="#ffffff"/>
  <g fill="url(#g)"><rect x="56" y="56" width="14" height="14" rx="1.7"/><rect x="70" y="56" width="14" height="14" rx="1.7"/><rect x="84" y="56" width="14" height="14" rx="1.7"/><rect x="98" y="56" width="14" height="14" rx="1.7"/><rect x="112" y="56" width="14" height="14" rx="1.7"/><rect x="126" y="56" width="14" height="14" rx="1.7"/><rect x="140" y="56" width="14" height="14" rx="1.7"/><rect x="168" y="56" width="14" height="14" rx="1.7"/><rect x="196" y="56" width="14" height="14" rx="1.7"/><rect x="210" y="56" width="14" height="14" rx="1.7"/><rect x="224" y="56" width="14" height="14" rx="1.7"/><rect x="238" y="56" width="14" height="14" rx="1.7"/><rect x="252" y="56" width="14" height="14" rx="1.7"/><rect x="280" y="56" width="14" height="14" rx="1.7"/><rect x="322" y="56" width="14" height="14" rx="1.7"/><rect x="392" y="56" width="14" height="14" rx="1.7"/><rect x="420" y="56" width="14" height="14" rx="1.7"/><rect x="448" y="56" width="14" height="14" rx="1.7"/><rect x="462" y="56" width="14" height="14" rx="1.7"/><rect x="476" y="56" width="14" height="14" rx="1.7"/><rect x="490" y="56" width="14" height="14" rx="1.7"/><rect x="504" y="56" width="14" height="14" rx="1.7"/><rect x="532" y="56" width="14" height="14" rx="1.7"/><rect x="546" y="56" width="14" height="14" rx="1.7"/><rect x="560" y="56" width="14" height="14" rx="1.7"/><rect x="574" y="56" width="14" height="14" rx="1.7"/><rect x="588" y="56" width="14" height="14" rx="1.7"/><rect x="602" y="56" width="14" height="14" rx="1.7"/><rect x="616" y="56" width="14" height="14" rx="1.7"/><rect x="56" y="70" width="14" height="14" rx="1.7"/><rect x="140" y="70" width="14" height="14" rx="1.7"/><rect x="168" y="70" width="14" height="14" rx="1.7"/><rect x="196" y="70" width="14" height="14" rx="1.7"/><rect x="210" y="70" width="14" height="14" rx="1.7"/><rect x="224" y="70" width="14" height="14" rx="1.7"/><rect x="266" y="70" width="14" height="14" rx="1.7"/><rect x="280" y="70" width="14" height="14" rx="1.7"/><rect x="336" y="70" width="14" height="14" rx="1.7"/><rect x="350" y="70" width="14" height="14" rx="1.7"/><rect x="434" y="70" width="14" height="14" rx="1.7"/><rect x="448" y="70" width="14" height="14" rx="1.7"/><rect x="462" y="70" width="14" height="14" rx="1.7"/><rect x="504" y="70" width="14" height="14" rx="1.7"/><rect x="532" y="70" width="14" height="14" rx="1.7"/><rect x="616" y="70" width="14" height="14" rx="1.7"/><rect x="56" y="84" width="14" height="14" rx="1.7"/><rect x="84" y="84" width="14" height="14" rx="1.7"/><rect x="98" y="84" width="14" height="14" rx="1.7"/><rect x="112" y="84" width="14" height="14" rx="1.7"/><rect x="140" y="84" width="14" height="14" rx="1.7"/><rect x="168" y="84" width="14" height="14" rx="1.7"/><rect x="182" y="84" width="14" height="14" rx="1.7"/><rect x="224" y="84" width="14" height="14" rx="1.7"/><rect x="238" y="84" width="14" height="14" rx="1.7"/><rect x="266" y="84" width="14" height="14" rx="1.7"/><rect x="280" y="84" width="14" height="14" rx="1.7"/><rect x="294" y="84" width="14" height="14" rx="1.7"/><rect x="308" y="84" width="14" height="14" rx="1.7"/><rect x="322" y="84" width="14" height="14" rx="1.7"/><rect x="420" y="84" width="14" height="14" rx="1.7"/><rect x="434" y="84" width="14" height="14" rx="1.7"/><rect x="462" y="84" width="14" height="14" rx="1.7"/><rect x="476" y="84" width="14" height="14" rx="1.7"/><rect x="504" y="84" width="14" height="14" rx="1.7"/><rect x="532" y="84" width="14" height="14" rx="1.7"/><rect x="560" y="84" width="14" height="14" rx="1.7"/><rect x="574" y="84" width="14" height="14" rx="1.7"/><rect x="588" y="84" width="14" height="14" rx="1.7"/><rect x="616" y="84" width="14" height="14" rx="1.7"/><rect x="56" y="98" width="14" height="14" rx="1.7"/><rect x="84" y="98" width="14" height="14" rx="1.7"/><rect x="98" y="98" width="14" height="14" rx="1.7"/><rect x="112" y="98" width="14" height="14" rx="1.7"/><rect x="140" y="98" width="14" height="14" rx="1.7"/><rect x="182" y="98" width="14" height="14" rx="1.7"/><rect x="266" y="98" width="14" height="14" rx="1.7"/><rect x="294" y="98" width="14" height="14" rx="1.7"/><rect x="336" y="98" width="14" height="14" rx="1.7"/><rect x="350" y="98" width="14" height="14" rx="1.7"/><rect x="378" y="98" width="14" height="14" rx="1.7"/><rect x="434" y="98" width="14" height="14" rx="1.7"/><rect x="504" y="98" width="14" height="14" rx="1.7"/><rect x="532" y="98" width="14" height="14" rx="1.7"/><rect x="560" y="98" width="14" height="14" rx="1.7"/><rect x="574" y="98" width="14" height="14" rx="1.7"/><rect x="588" y="98" width="14" height="14" rx="1.7"/><rect x="616" y="98" width="14" height="14" rx="1.7"/><rect x="56" y="112" width="14" height="14" rx="1.7"/><rect x="84" y="112" width="14" height="14" rx="1.7"/><rect x="98" y="112" width="14" height="14" rx="1.7"/><rect x="112" y="112" width="14" height="14" rx="1.7"/><rect x="140" y="112" width="14" height="14" rx="1.7"/><rect x="196" y="112" width="14" height="14" rx="1.7"/><rect x="210" y="112" width="14" height="14" rx="1.7"/><rect x="238" y="112" width="14" height="14" rx="1.7"/><rect x="252" y="112" width="14" height="14" rx="1.7"/><rect x="294" y="112" width="14" height="14" rx="1.7"/><rect x="308" y="112" width="14" height="14" rx="1.7"/><rect x="336" y="112" width="14" height="14" rx="1.7"/><rect x="350" y="112" width="14" height="14" rx="1.7"/><rect x="364" y="112" width="14" height="14" rx="1.7"/><rect x="378" y="112" width="14" height="14" rx="1.7"/><rect x="420" y="112" width="14" height="14" rx="1.7"/><rect x="448" y="112" width="14" height="14" rx="1.7"/><rect x="476" y="112" width="14" height="14" rx="1.7"/><rect x="490" y="112" width="14" height="14" rx="1.7"/><rect x="504" y="112" width="14" height="14" rx="1.7"/><rect x="532" y="112" width="14" height="14" rx="1.7"/><rect x="560" y="112" width="14" height="14" rx="1.7"/><rect x="574" y="112" width="14" height="14" rx="1.7"/><rect x="588" y="112" width="14" height="14" rx="1.7"/><rect x="616" y="112" width="14" height="14" rx="1.7"/><rect x="56" y="126" width="14" height="14" rx="1.7"/><rect x="140" y="126" width="14" height="14" rx="1.7"/><rect x="168" y="126" width="14" height="14" rx="1.7"/><rect x="196" y="126" width="14" height="14" rx="1.7"/><rect x="224" y="126" width="14" height="14" rx="1.7"/><rect x="238" y="126" width="14" height="14" rx="1.7"/><rect x="252" y="126" width="14" height="14" rx="1.7"/><rect x="280" y="126" width="14" height="14" rx="1.7"/><rect x="322" y="126" width="14" height="14" rx="1.7"/><rect x="336" y="126" width="14" height="14" rx="1.7"/><rect x="364" y="126" width="14" height="14" rx="1.7"/><rect x="392" y="126" width="14" height="14" rx="1.7"/><rect x="434" y="126" width="14" height="14" rx="1.7"/><rect x="504" y="126" width="14" height="14" rx="1.7"/><rect x="532" y="126" width="14" height="14" rx="1.7"/><rect x="616" y="126" width="14" height="14" rx="1.7"/><rect x="56" y="140" width="14" height="14" rx="1.7"/><rect x="70" y="140" width="14" height="14" rx="1.7"/><rect x="84" y="140" width="14" height="14" rx="1.7"/><rect x="98" y="140" width="14" height="14" rx="1.7"/><rect x="112" y="140" width="14" height="14" rx="1.7"/><rect x="126" y="140" width="14" height="14" rx="1.7"/><rect x="140" y="140" width="14" height="14" rx="1.7"/><rect x="168" y="140" width="14" height="14" rx="1.7"/><rect x="196" y="140" width="14" height="14" rx="1.7"/><rect x="224" y="140" width="14" height="14" rx="1.7"/><rect x="252" y="140" width="14" height="14" rx="1.7"/><rect x="280" y="140" width="14" height="14" rx="1.7"/><rect x="308" y="140" width="14" height="14" rx="1.7"/><rect x="336" y="140" width="14" height="14" rx="1.7"/><rect x="364" y="140" width="14" height="14" rx="1.7"/><rect x="392" y="140" width="14" height="14" rx="1.7"/><rect x="420" y="140" width="14" height="14" rx="1.7"/><rect x="448" y="140" width="14" height="14" rx="1.7"/><rect x="476" y="140" width="14" height="14" rx="1.7"/><rect x="504" y="140" width="14" height="14" rx="1.7"/><rect x="532" y="140" width="14" height="14" rx="1.7"/><rect x="546" y="140" width="14" height="14" rx="1.7"/><rect x="560" y="140" width="14" height="14" rx="1.7"/><rect x="574" y="140" width="14" height="14" rx="1.7"/><rect x="588" y="140" width="14" height="14" rx="1.7"/><rect x="602" y="140" width="14" height="14" rx="1.7"/><rect x="616" y="140" width="14" height="14" rx="1.7"/><rect x="168" y="154" width="14" height="14" rx="1.7"/><rect x="182" y="154" width="14" height="14" rx="1.7"/><rect x="224" y="154" width="14" height="14" rx="1.7"/><rect x="238" y="154" width="14" height="14" rx="1.7"/><rect x="252" y="154" width="14" height="14" rx="1.7"/><rect x="280" y="154" width="14" height="14" rx="1.7"/><rect x="294" y="154" width="14" height="14" rx="1.7"/><rect x="308" y="154" width="14" height="14" rx="1.7"/><rect x="364" y="154" width="14" height="14" rx="1.7"/><rect x="378" y="154" width="14" height="14" rx="1.7"/><rect x="406" y="154" width="14" height="14" rx="1.7"/><rect x="420" y="154" width="14" height="14" rx="1.7"/><rect x="448" y="154" width="14" height="14" rx="1.7"/><rect x="476" y="154" width="14" height="14" rx="1.7"/><rect x="84" y="168" width="14" height="14" rx="1.7"/><rect x="98" y="168" width="14" height="14" rx="1.7"/><rect x="112" y="168" width="14" height="14" rx="1.7"/><rect x="140" y="168" width="14" height="14" rx="1.7"/><rect x="168" y="168" width="14" height="14" rx="1.7"/><rect x="196" y="168" width="14" height="14" rx="1.7"/><rect x="210" y="168" width="14" height="14" rx="1.7"/><rect x="252" y="168" width="14" height="14" rx="1.7"/><rect x="280" y="168" width="14" height="14" rx="1.7"/><rect x="308" y="168" width="14" height="14" rx="1.7"/><rect x="322" y="168" width="14" height="14" rx="1.7"/><rect x="350" y="168" width="14" height="14" rx="1.7"/><rect x="378" y="168" width="14" height="14" rx="1.7"/><rect x="462" y="168" width="14" height="14" rx="1.7"/><rect x="490" y="168" width="14" height="14" rx="1.7"/><rect x="518" y="168" width="14" height="14" rx="1.7"/><rect x="532" y="168" width="14" height="14" rx="1.7"/><rect x="546" y="168" width="14" height="14" rx="1.7"/><rect x="588" y="168" width="14" height="14" rx="1.7"/><rect x="602" y="168" width="14" height="14" rx="1.7"/><rect x="616" y="168" width="14" height="14" rx="1.7"/><rect x="56" y="182" width="14" height="14" rx="1.7"/><rect x="84" y="182" width="14" height="14" rx="1.7"/><rect x="98" y="182" width="14" height="14" rx="1.7"/><rect x="126" y="182" width="14" height="14" rx="1.7"/><rect x="154" y="182" width="14" height="14" rx="1.7"/><rect x="196" y="182" width="14" height="14" rx="1.7"/><rect x="210" y="182" width="14" height="14" rx="1.7"/><rect x="224" y="182" width="14" height="14" rx="1.7"/><rect x="252" y="182" width="14" height="14" rx="1.7"/><rect x="308" y="182" width="14" height="14" rx="1.7"/><rect x="322" y="182" width="14" height="14" rx="1.7"/><rect x="364" y="182" width="14" height="14" rx="1.7"/><rect x="392" y="182" width="14" height="14" rx="1.7"/><rect x="448" y="182" width="14" height="14" rx="1.7"/><rect x="476" y="182" width="14" height="14" rx="1.7"/><rect x="490" y="182" width="14" height="14" rx="1.7"/><rect x="504" y="182" width="14" height="14" rx="1.7"/><rect x="518" y="182" width="14" height="14" rx="1.7"/><rect x="532" y="182" width="14" height="14" rx="1.7"/><rect x="546" y="182" width="14" height="14" rx="1.7"/><rect x="560" y="182" width="14" height="14" rx="1.7"/><rect x="588" y="182" width="14" height="14" rx="1.7"/><rect x="616" y="182" width="14" height="14" rx="1.7"/><rect x="98" y="196" width="14" height="14" rx="1.7"/><rect x="126" y="196" width="14" height="14" rx="1.7"/><rect x="140" y="196" width="14" height="14" rx="1.7"/><rect x="168" y="196" width="14" height="14" rx="1.7"/><rect x="182" y="196" width="14" height="14" rx="1.7"/><rect x="224" y="196" width="14" height="14" rx="1.7"/><rect x="252" y="196" width="14" height="14" rx="1.7"/><rect x="350" y="196" width="14" height="14" rx="1.7"/><rect x="434" y="196" width="14" height="14" rx="1.7"/><rect x="448" y="196" width="14" height="14" rx="1.7"/><rect x="504" y="196" width="14" height="14" rx="1.7"/><rect x="532" y="196" width="14" height="14" rx="1.7"/><rect x="602" y="196" width="14" height="14" rx="1.7"/><rect x="56" y="210" width="14" height="14" rx="1.7"/><rect x="84" y="210" width="14" height="14" rx="1.7"/><rect x="98" y="210" width="14" height="14" rx="1.7"/><rect x="112" y="210" width="14" height="14" rx="1.7"/><rect x="168" y="210" width="14" height="14" rx="1.7"/><rect x="196" y="210" width="14" height="14" rx="1.7"/><rect x="210" y="210" width="14" height="14" rx="1.7"/><rect x="252" y="210" width="14" height="14" rx="1.7"/><rect x="266" y="210" width="14" height="14" rx="1.7"/><rect x="280" y="210" width="14" height="14" rx="1.7"/><rect x="322" y="210" width="14" height="14" rx="1.7"/><rect x="336" y="210" width="14" height="14" rx="1.7"/><rect x="350" y="210" width="14" height="14" rx="1.7"/><rect x="378" y="210" width="14" height="14" rx="1.7"/><rect x="392" y="210" width="14" height="14" rx="1.7"/><rect x="420" y="210" width="14" height="14" rx="1.7"/><rect x="448" y="210" width="14" height="14" rx="1.7"/><rect x="476" y="210" width="14" height="14" rx="1.7"/><rect x="490" y="210" width="14" height="14" rx="1.7"/><rect x="504" y="210" width="14" height="14" rx="1.7"/><rect x="518" y="210" width="14" height="14" rx="1.7"/><rect x="532" y="210" width="14" height="14" rx="1.7"/><rect x="546" y="210" width="14" height="14" rx="1.7"/><rect x="574" y="210" width="14" height="14" rx="1.7"/><rect x="98" y="224" width="14" height="14" rx="1.7"/><rect x="112" y="224" width="14" height="14" rx="1.7"/><rect x="140" y="224" width="14" height="14" rx="1.7"/><rect x="196" y="224" width="14" height="14" rx="1.7"/><rect x="210" y="224" width="14" height="14" rx="1.7"/><rect x="238" y="224" width="14" height="14" rx="1.7"/><rect x="280" y="224" width="14" height="14" rx="1.7"/><rect x="322" y="224" width="14" height="14" rx="1.7"/><rect x="336" y="224" width="14" height="14" rx="1.7"/><rect x="350" y="224" width="14" height="14" rx="1.7"/><rect x="392" y="224" width="14" height="14" rx="1.7"/><rect x="420" y="224" width="14" height="14" rx="1.7"/><rect x="462" y="224" width="14" height="14" rx="1.7"/><rect x="490" y="224" width="14" height="14" rx="1.7"/><rect x="504" y="224" width="14" height="14" rx="1.7"/><rect x="532" y="224" width="14" height="14" rx="1.7"/><rect x="546" y="224" width="14" height="14" rx="1.7"/><rect x="574" y="224" width="14" height="14" rx="1.7"/><rect x="588" y="224" width="14" height="14" rx="1.7"/><rect x="616" y="224" width="14" height="14" rx="1.7"/><rect x="56" y="238" width="14" height="14" rx="1.7"/><rect x="70" y="238" width="14" height="14" rx="1.7"/><rect x="84" y="238" width="14" height="14" rx="1.7"/><rect x="98" y="238" width="14" height="14" rx="1.7"/><rect x="126" y="238" width="14" height="14" rx="1.7"/><rect x="154" y="238" width="14" height="14" rx="1.7"/><rect x="210" y="238" width="14" height="14" rx="1.7"/><rect x="224" y="238" width="14" height="14" rx="1.7"/><rect x="238" y="238" width="14" height="14" rx="1.7"/><rect x="252" y="238" width="14" height="14" rx="1.7"/><rect x="280" y="238" width="14" height="14" rx="1.7"/><rect x="294" y="238" width="14" height="14" rx="1.7"/><rect x="336" y="238" width="14" height="14" rx="1.7"/><rect x="350" y="238" width="14" height="14" rx="1.7"/><rect x="364" y="238" width="14" height="14" rx="1.7"/><rect x="378" y="238" width="14" height="14" rx="1.7"/><rect x="420" y="238" width="14" height="14" rx="1.7"/><rect x="434" y="238" width="14" height="14" rx="1.7"/><rect x="448" y="238" width="14" height="14" rx="1.7"/><rect x="462" y="238" width="14" height="14" rx="1.7"/><rect x="476" y="238" width="14" height="14" rx="1.7"/><rect x="518" y="238" width="14" height="14" rx="1.7"/><rect x="546" y="238" width="14" height="14" rx="1.7"/><rect x="560" y="238" width="14" height="14" rx="1.7"/><rect x="588" y="238" width="14" height="14" rx="1.7"/><rect x="602" y="238" width="14" height="14" rx="1.7"/><rect x="616" y="238" width="14" height="14" rx="1.7"/><rect x="56" y="252" width="14" height="14" rx="1.7"/><rect x="70" y="252" width="14" height="14" rx="1.7"/><rect x="98" y="252" width="14" height="14" rx="1.7"/><rect x="126" y="252" width="14" height="14" rx="1.7"/><rect x="140" y="252" width="14" height="14" rx="1.7"/><rect x="182" y="252" width="14" height="14" rx="1.7"/><rect x="210" y="252" width="14" height="14" rx="1.7"/><rect x="224" y="252" width="14" height="14" rx="1.7"/><rect x="238" y="252" width="14" height="14" rx="1.7"/><rect x="266" y="252" width="14" height="14" rx="1.7"/><rect x="294" y="252" width="14" height="14" rx="1.7"/><rect x="364" y="252" width="14" height="14" rx="1.7"/><rect x="420" y="252" width="14" height="14" rx="1.7"/><rect x="462" y="252" width="14" height="14" rx="1.7"/><rect x="504" y="252" width="14" height="14" rx="1.7"/><rect x="518" y="252" width="14" height="14" rx="1.7"/><rect x="588" y="252" width="14" height="14" rx="1.7"/><rect x="602" y="252" width="14" height="14" rx="1.7"/><rect x="56" y="266" width="14" height="14" rx="1.7"/><rect x="84" y="266" width="14" height="14" rx="1.7"/><rect x="112" y="266" width="14" height="14" rx="1.7"/><rect x="126" y="266" width="14" height="14" rx="1.7"/><rect x="168" y="266" width="14" height="14" rx="1.7"/><rect x="182" y="266" width="14" height="14" rx="1.7"/><rect x="224" y="266" width="14" height="14" rx="1.7"/><rect x="238" y="266" width="14" height="14" rx="1.7"/><rect x="280" y="266" width="14" height="14" rx="1.7"/><rect x="294" y="266" width="14" height="14" rx="1.7"/><rect x="308" y="266" width="14" height="14" rx="1.7"/><rect x="336" y="266" width="14" height="14" rx="1.7"/><rect x="364" y="266" width="14" height="14" rx="1.7"/><rect x="406" y="266" width="14" height="14" rx="1.7"/><rect x="420" y="266" width="14" height="14" rx="1.7"/><rect x="448" y="266" width="14" height="14" rx="1.7"/><rect x="476" y="266" width="14" height="14" rx="1.7"/><rect x="532" y="266" width="14" height="14" rx="1.7"/><rect x="546" y="266" width="14" height="14" rx="1.7"/><rect x="574" y="266" width="14" height="14" rx="1.7"/><rect x="616" y="266" width="14" height="14" rx="1.7"/><rect x="84" y="280" width="14" height="14" rx="1.7"/><rect x="98" y="280" width="14" height="14" rx="1.7"/><rect x="112" y="280" width="14" height="14" rx="1.7"/><rect x="140" y="280" width="14" height="14" rx="1.7"/><rect x="182" y="280" width="14" height="14" rx="1.7"/><rect x="210" y="280" width="14" height="14" rx="1.7"/><rect x="238" y="280" width="14" height="14" rx="1.7"/><rect x="252" y="280" width="14" height="14" rx="1.7"/><rect x="280" y="280" width="14" height="14" rx="1.7"/><rect x="308" y="280" width="14" height="14" rx="1.7"/><rect x="322" y="280" width="14" height="14" rx="1.7"/><rect x="336" y="280" width="14" height="14" rx="1.7"/><rect x="392" y="280" width="14" height="14" rx="1.7"/><rect x="406" y="280" width="14" height="14" rx="1.7"/><rect x="420" y="280" width="14" height="14" rx="1.7"/><rect x="448" y="280" width="14" height="14" rx="1.7"/><rect x="462" y="280" width="14" height="14" rx="1.7"/><rect x="504" y="280" width="14" height="14" rx="1.7"/><rect x="518" y="280" width="14" height="14" rx="1.7"/><rect x="546" y="280" width="14" height="14" rx="1.7"/><rect x="588" y="280" width="14" height="14" rx="1.7"/><rect x="616" y="280" width="14" height="14" rx="1.7"/><rect x="56" y="294" width="14" height="14" rx="1.7"/><rect x="70" y="294" width="14" height="14" rx="1.7"/><rect x="84" y="294" width="14" height="14" rx="1.7"/><rect x="168" y="294" width="14" height="14" rx="1.7"/><rect x="196" y="294" width="14" height="14" rx="1.7"/><rect x="210" y="294" width="14" height="14" rx="1.7"/><rect x="224" y="294" width="14" height="14" rx="1.7"/><rect x="280" y="294" width="14" height="14" rx="1.7"/><rect x="294" y="294" width="14" height="14" rx="1.7"/><rect x="336" y="294" width="14" height="14" rx="1.7"/><rect x="378" y="294" width="14" height="14" rx="1.7"/><rect x="392" y="294" width="14" height="14" rx="1.7"/><rect x="406" y="294" width="14" height="14" rx="1.7"/><rect x="448" y="294" width="14" height="14" rx="1.7"/><rect x="476" y="294" width="14" height="14" rx="1.7"/><rect x="490" y="294" width="14" height="14" rx="1.7"/><rect x="504" y="294" width="14" height="14" rx="1.7"/><rect x="532" y="294" width="14" height="14" rx="1.7"/><rect x="546" y="294" width="14" height="14" rx="1.7"/><rect x="560" y="294" width="14" height="14" rx="1.7"/><rect x="574" y="294" width="14" height="14" rx="1.7"/><rect x="588" y="294" width="14" height="14" rx="1.7"/><rect x="602" y="294" width="14" height="14" rx="1.7"/><rect x="616" y="294" width="14" height="14" rx="1.7"/><rect x="56" y="308" width="14" height="14" rx="1.7"/><rect x="70" y="308" width="14" height="14" rx="1.7"/><rect x="84" y="308" width="14" height="14" rx="1.7"/><rect x="112" y="308" width="14" height="14" rx="1.7"/><rect x="140" y="308" width="14" height="14" rx="1.7"/><rect x="168" y="308" width="14" height="14" rx="1.7"/><rect x="182" y="308" width="14" height="14" rx="1.7"/><rect x="196" y="308" width="14" height="14" rx="1.7"/><rect x="224" y="308" width="14" height="14" rx="1.7"/><rect x="238" y="308" width="14" height="14" rx="1.7"/><rect x="266" y="308" width="14" height="14" rx="1.7"/><rect x="294" y="308" width="14" height="14" rx="1.7"/><rect x="322" y="308" width="14" height="14" rx="1.7"/><rect x="336" y="308" width="14" height="14" rx="1.7"/><rect x="350" y="308" width="14" height="14" rx="1.7"/><rect x="378" y="308" width="14" height="14" rx="1.7"/><rect x="392" y="308" width="14" height="14" rx="1.7"/><rect x="420" y="308" width="14" height="14" rx="1.7"/><rect x="434" y="308" width="14" height="14" rx="1.7"/><rect x="448" y="308" width="14" height="14" rx="1.7"/><rect x="476" y="308" width="14" height="14" rx="1.7"/><rect x="518" y="308" width="14" height="14" rx="1.7"/><rect x="532" y="308" width="14" height="14" rx="1.7"/><rect x="560" y="308" width="14" height="14" rx="1.7"/><rect x="574" y="308" width="14" height="14" rx="1.7"/><rect x="588" y="308" width="14" height="14" rx="1.7"/><rect x="70" y="322" width="14" height="14" rx="1.7"/><rect x="84" y="322" width="14" height="14" rx="1.7"/><rect x="112" y="322" width="14" height="14" rx="1.7"/><rect x="196" y="322" width="14" height="14" rx="1.7"/><rect x="224" y="322" width="14" height="14" rx="1.7"/><rect x="238" y="322" width="14" height="14" rx="1.7"/><rect x="266" y="322" width="14" height="14" rx="1.7"/><rect x="280" y="322" width="14" height="14" rx="1.7"/><rect x="322" y="322" width="14" height="14" rx="1.7"/><rect x="350" y="322" width="14" height="14" rx="1.7"/><rect x="364" y="322" width="14" height="14" rx="1.7"/><rect x="392" y="322" width="14" height="14" rx="1.7"/><rect x="406" y="322" width="14" height="14" rx="1.7"/><rect x="448" y="322" width="14" height="14" rx="1.7"/><rect x="504" y="322" width="14" height="14" rx="1.7"/><rect x="560" y="322" width="14" height="14" rx="1.7"/><rect x="574" y="322" width="14" height="14" rx="1.7"/><rect x="602" y="322" width="14" height="14" rx="1.7"/><rect x="98" y="336" width="14" height="14" rx="1.7"/><rect x="126" y="336" width="14" height="14" rx="1.7"/><rect x="140" y="336" width="14" height="14" rx="1.7"/><rect x="154" y="336" width="14" height="14" rx="1.7"/><rect x="182" y="336" width="14" height="14" rx="1.7"/><rect x="210" y="336" width="14" height="14" rx="1.7"/><rect x="238" y="336" width="14" height="14" rx="1.7"/><rect x="252" y="336" width="14" height="14" rx="1.7"/><rect x="266" y="336" width="14" height="14" rx="1.7"/><rect x="280" y="336" width="14" height="14" rx="1.7"/><rect x="336" y="336" width="14" height="14" rx="1.7"/><rect x="350" y="336" width="14" height="14" rx="1.7"/><rect x="364" y="336" width="14" height="14" rx="1.7"/><rect x="378" y="336" width="14" height="14" rx="1.7"/><rect x="392" y="336" width="14" height="14" rx="1.7"/><rect x="406" y="336" width="14" height="14" rx="1.7"/><rect x="420" y="336" width="14" height="14" rx="1.7"/><rect x="476" y="336" width="14" height="14" rx="1.7"/><rect x="518" y="336" width="14" height="14" rx="1.7"/><rect x="546" y="336" width="14" height="14" rx="1.7"/><rect x="560" y="336" width="14" height="14" rx="1.7"/><rect x="588" y="336" width="14" height="14" rx="1.7"/><rect x="56" y="350" width="14" height="14" rx="1.7"/><rect x="70" y="350" width="14" height="14" rx="1.7"/><rect x="84" y="350" width="14" height="14" rx="1.7"/><rect x="112" y="350" width="14" height="14" rx="1.7"/><rect x="126" y="350" width="14" height="14" rx="1.7"/><rect x="168" y="350" width="14" height="14" rx="1.7"/><rect x="182" y="350" width="14" height="14" rx="1.7"/><rect x="196" y="350" width="14" height="14" rx="1.7"/><rect x="238" y="350" width="14" height="14" rx="1.7"/><rect x="252" y="350" width="14" height="14" rx="1.7"/><rect x="266" y="350" width="14" height="14" rx="1.7"/><rect x="280" y="350" width="14" height="14" rx="1.7"/><rect x="308" y="350" width="14" height="14" rx="1.7"/><rect x="336" y="350" width="14" height="14" rx="1.7"/><rect x="364" y="350" width="14" height="14" rx="1.7"/><rect x="392" y="350" width="14" height="14" rx="1.7"/><rect x="406" y="350" width="14" height="14" rx="1.7"/><rect x="462" y="350" width="14" height="14" rx="1.7"/><rect x="490" y="350" width="14" height="14" rx="1.7"/><rect x="504" y="350" width="14" height="14" rx="1.7"/><rect x="518" y="350" width="14" height="14" rx="1.7"/><rect x="532" y="350" width="14" height="14" rx="1.7"/><rect x="560" y="350" width="14" height="14" rx="1.7"/><rect x="602" y="350" width="14" height="14" rx="1.7"/><rect x="616" y="350" width="14" height="14" rx="1.7"/><rect x="84" y="364" width="14" height="14" rx="1.7"/><rect x="98" y="364" width="14" height="14" rx="1.7"/><rect x="140" y="364" width="14" height="14" rx="1.7"/><rect x="168" y="364" width="14" height="14" rx="1.7"/><rect x="196" y="364" width="14" height="14" rx="1.7"/><rect x="252" y="364" width="14" height="14" rx="1.7"/><rect x="294" y="364" width="14" height="14" rx="1.7"/><rect x="322" y="364" width="14" height="14" rx="1.7"/><rect x="378" y="364" width="14" height="14" rx="1.7"/><rect x="392" y="364" width="14" height="14" rx="1.7"/><rect x="420" y="364" width="14" height="14" rx="1.7"/><rect x="434" y="364" width="14" height="14" rx="1.7"/><rect x="476" y="364" width="14" height="14" rx="1.7"/><rect x="504" y="364" width="14" height="14" rx="1.7"/><rect x="532" y="364" width="14" height="14" rx="1.7"/><rect x="546" y="364" width="14" height="14" rx="1.7"/><rect x="560" y="364" width="14" height="14" rx="1.7"/><rect x="574" y="364" width="14" height="14" rx="1.7"/><rect x="70" y="378" width="14" height="14" rx="1.7"/><rect x="84" y="378" width="14" height="14" rx="1.7"/><rect x="126" y="378" width="14" height="14" rx="1.7"/><rect x="238" y="378" width="14" height="14" rx="1.7"/><rect x="294" y="378" width="14" height="14" rx="1.7"/><rect x="308" y="378" width="14" height="14" rx="1.7"/><rect x="336" y="378" width="14" height="14" rx="1.7"/><rect x="392" y="378" width="14" height="14" rx="1.7"/><rect x="490" y="378" width="14" height="14" rx="1.7"/><rect x="504" y="378" width="14" height="14" rx="1.7"/><rect x="518" y="378" width="14" height="14" rx="1.7"/><rect x="560" y="378" width="14" height="14" rx="1.7"/><rect x="602" y="378" width="14" height="14" rx="1.7"/><rect x="616" y="378" width="14" height="14" rx="1.7"/><rect x="56" y="392" width="14" height="14" rx="1.7"/><rect x="84" y="392" width="14" height="14" rx="1.7"/><rect x="98" y="392" width="14" height="14" rx="1.7"/><rect x="126" y="392" width="14" height="14" rx="1.7"/><rect x="140" y="392" width="14" height="14" rx="1.7"/><rect x="154" y="392" width="14" height="14" rx="1.7"/><rect x="182" y="392" width="14" height="14" rx="1.7"/><rect x="196" y="392" width="14" height="14" rx="1.7"/><rect x="210" y="392" width="14" height="14" rx="1.7"/><rect x="252" y="392" width="14" height="14" rx="1.7"/><rect x="266" y="392" width="14" height="14" rx="1.7"/><rect x="294" y="392" width="14" height="14" rx="1.7"/><rect x="308" y="392" width="14" height="14" rx="1.7"/><rect x="322" y="392" width="14" height="14" rx="1.7"/><rect x="350" y="392" width="14" height="14" rx="1.7"/><rect x="378" y="392" width="14" height="14" rx="1.7"/><rect x="392" y="392" width="14" height="14" rx="1.7"/><rect x="420" y="392" width="14" height="14" rx="1.7"/><rect x="434" y="392" width="14" height="14" rx="1.7"/><rect x="462" y="392" width="14" height="14" rx="1.7"/><rect x="616" y="392" width="14" height="14" rx="1.7"/><rect x="84" y="406" width="14" height="14" rx="1.7"/><rect x="126" y="406" width="14" height="14" rx="1.7"/><rect x="168" y="406" width="14" height="14" rx="1.7"/><rect x="182" y="406" width="14" height="14" rx="1.7"/><rect x="196" y="406" width="14" height="14" rx="1.7"/><rect x="210" y="406" width="14" height="14" rx="1.7"/><rect x="238" y="406" width="14" height="14" rx="1.7"/><rect x="252" y="406" width="14" height="14" rx="1.7"/><rect x="364" y="406" width="14" height="14" rx="1.7"/><rect x="378" y="406" width="14" height="14" rx="1.7"/><rect x="420" y="406" width="14" height="14" rx="1.7"/><rect x="448" y="406" width="14" height="14" rx="1.7"/><rect x="462" y="406" width="14" height="14" rx="1.7"/><rect x="476" y="406" width="14" height="14" rx="1.7"/><rect x="490" y="406" width="14" height="14" rx="1.7"/><rect x="518" y="406" width="14" height="14" rx="1.7"/><rect x="532" y="406" width="14" height="14" rx="1.7"/><rect x="546" y="406" width="14" height="14" rx="1.7"/><rect x="560" y="406" width="14" height="14" rx="1.7"/><rect x="574" y="406" width="14" height="14" rx="1.7"/><rect x="616" y="406" width="14" height="14" rx="1.7"/><rect x="70" y="420" width="14" height="14" rx="1.7"/><rect x="84" y="420" width="14" height="14" rx="1.7"/><rect x="98" y="420" width="14" height="14" rx="1.7"/><rect x="126" y="420" width="14" height="14" rx="1.7"/><rect x="140" y="420" width="14" height="14" rx="1.7"/><rect x="168" y="420" width="14" height="14" rx="1.7"/><rect x="182" y="420" width="14" height="14" rx="1.7"/><rect x="196" y="420" width="14" height="14" rx="1.7"/><rect x="210" y="420" width="14" height="14" rx="1.7"/><rect x="224" y="420" width="14" height="14" rx="1.7"/><rect x="238" y="420" width="14" height="14" rx="1.7"/><rect x="266" y="420" width="14" height="14" rx="1.7"/><rect x="336" y="420" width="14" height="14" rx="1.7"/><rect x="350" y="420" width="14" height="14" rx="1.7"/><rect x="378" y="420" width="14" height="14" rx="1.7"/><rect x="392" y="420" width="14" height="14" rx="1.7"/><rect x="406" y="420" width="14" height="14" rx="1.7"/><rect x="420" y="420" width="14" height="14" rx="1.7"/><rect x="434" y="420" width="14" height="14" rx="1.7"/><rect x="448" y="420" width="14" height="14" rx="1.7"/><rect x="476" y="420" width="14" height="14" rx="1.7"/><rect x="504" y="420" width="14" height="14" rx="1.7"/><rect x="518" y="420" width="14" height="14" rx="1.7"/><rect x="546" y="420" width="14" height="14" rx="1.7"/><rect x="560" y="420" width="14" height="14" rx="1.7"/><rect x="602" y="420" width="14" height="14" rx="1.7"/><rect x="56" y="434" width="14" height="14" rx="1.7"/><rect x="98" y="434" width="14" height="14" rx="1.7"/><rect x="126" y="434" width="14" height="14" rx="1.7"/><rect x="168" y="434" width="14" height="14" rx="1.7"/><rect x="182" y="434" width="14" height="14" rx="1.7"/><rect x="196" y="434" width="14" height="14" rx="1.7"/><rect x="210" y="434" width="14" height="14" rx="1.7"/><rect x="224" y="434" width="14" height="14" rx="1.7"/><rect x="266" y="434" width="14" height="14" rx="1.7"/><rect x="280" y="434" width="14" height="14" rx="1.7"/><rect x="294" y="434" width="14" height="14" rx="1.7"/><rect x="350" y="434" width="14" height="14" rx="1.7"/><rect x="378" y="434" width="14" height="14" rx="1.7"/><rect x="406" y="434" width="14" height="14" rx="1.7"/><rect x="434" y="434" width="14" height="14" rx="1.7"/><rect x="448" y="434" width="14" height="14" rx="1.7"/><rect x="476" y="434" width="14" height="14" rx="1.7"/><rect x="490" y="434" width="14" height="14" rx="1.7"/><rect x="504" y="434" width="14" height="14" rx="1.7"/><rect x="574" y="434" width="14" height="14" rx="1.7"/><rect x="602" y="434" width="14" height="14" rx="1.7"/><rect x="616" y="434" width="14" height="14" rx="1.7"/><rect x="70" y="448" width="14" height="14" rx="1.7"/><rect x="84" y="448" width="14" height="14" rx="1.7"/><rect x="98" y="448" width="14" height="14" rx="1.7"/><rect x="126" y="448" width="14" height="14" rx="1.7"/><rect x="140" y="448" width="14" height="14" rx="1.7"/><rect x="154" y="448" width="14" height="14" rx="1.7"/><rect x="168" y="448" width="14" height="14" rx="1.7"/><rect x="210" y="448" width="14" height="14" rx="1.7"/><rect x="224" y="448" width="14" height="14" rx="1.7"/><rect x="252" y="448" width="14" height="14" rx="1.7"/><rect x="266" y="448" width="14" height="14" rx="1.7"/><rect x="280" y="448" width="14" height="14" rx="1.7"/><rect x="336" y="448" width="14" height="14" rx="1.7"/><rect x="364" y="448" width="14" height="14" rx="1.7"/><rect x="378" y="448" width="14" height="14" rx="1.7"/><rect x="392" y="448" width="14" height="14" rx="1.7"/><rect x="448" y="448" width="14" height="14" rx="1.7"/><rect x="462" y="448" width="14" height="14" rx="1.7"/><rect x="490" y="448" width="14" height="14" rx="1.7"/><rect x="518" y="448" width="14" height="14" rx="1.7"/><rect x="574" y="448" width="14" height="14" rx="1.7"/><rect x="588" y="448" width="14" height="14" rx="1.7"/><rect x="602" y="448" width="14" height="14" rx="1.7"/><rect x="56" y="462" width="14" height="14" rx="1.7"/><rect x="84" y="462" width="14" height="14" rx="1.7"/><rect x="154" y="462" width="14" height="14" rx="1.7"/><rect x="182" y="462" width="14" height="14" rx="1.7"/><rect x="210" y="462" width="14" height="14" rx="1.7"/><rect x="224" y="462" width="14" height="14" rx="1.7"/><rect x="238" y="462" width="14" height="14" rx="1.7"/><rect x="266" y="462" width="14" height="14" rx="1.7"/><rect x="280" y="462" width="14" height="14" rx="1.7"/><rect x="294" y="462" width="14" height="14" rx="1.7"/><rect x="308" y="462" width="14" height="14" rx="1.7"/><rect x="336" y="462" width="14" height="14" rx="1.7"/><rect x="350" y="462" width="14" height="14" rx="1.7"/><rect x="364" y="462" width="14" height="14" rx="1.7"/><rect x="392" y="462" width="14" height="14" rx="1.7"/><rect x="434" y="462" width="14" height="14" rx="1.7"/><rect x="504" y="462" width="14" height="14" rx="1.7"/><rect x="546" y="462" width="14" height="14" rx="1.7"/><rect x="560" y="462" width="14" height="14" rx="1.7"/><rect x="574" y="462" width="14" height="14" rx="1.7"/><rect x="588" y="462" width="14" height="14" rx="1.7"/><rect x="602" y="462" width="14" height="14" rx="1.7"/><rect x="616" y="462" width="14" height="14" rx="1.7"/><rect x="56" y="476" width="14" height="14" rx="1.7"/><rect x="98" y="476" width="14" height="14" rx="1.7"/><rect x="126" y="476" width="14" height="14" rx="1.7"/><rect x="140" y="476" width="14" height="14" rx="1.7"/><rect x="210" y="476" width="14" height="14" rx="1.7"/><rect x="224" y="476" width="14" height="14" rx="1.7"/><rect x="238" y="476" width="14" height="14" rx="1.7"/><rect x="252" y="476" width="14" height="14" rx="1.7"/><rect x="280" y="476" width="14" height="14" rx="1.7"/><rect x="336" y="476" width="14" height="14" rx="1.7"/><rect x="364" y="476" width="14" height="14" rx="1.7"/><rect x="392" y="476" width="14" height="14" rx="1.7"/><rect x="406" y="476" width="14" height="14" rx="1.7"/><rect x="420" y="476" width="14" height="14" rx="1.7"/><rect x="434" y="476" width="14" height="14" rx="1.7"/><rect x="448" y="476" width="14" height="14" rx="1.7"/><rect x="462" y="476" width="14" height="14" rx="1.7"/><rect x="490" y="476" width="14" height="14" rx="1.7"/><rect x="518" y="476" width="14" height="14" rx="1.7"/><rect x="532" y="476" width="14" height="14" rx="1.7"/><rect x="574" y="476" width="14" height="14" rx="1.7"/><rect x="588" y="476" width="14" height="14" rx="1.7"/><rect x="56" y="490" width="14" height="14" rx="1.7"/><rect x="154" y="490" width="14" height="14" rx="1.7"/><rect x="182" y="490" width="14" height="14" rx="1.7"/><rect x="196" y="490" width="14" height="14" rx="1.7"/><rect x="238" y="490" width="14" height="14" rx="1.7"/><rect x="266" y="490" width="14" height="14" rx="1.7"/><rect x="294" y="490" width="14" height="14" rx="1.7"/><rect x="364" y="490" width="14" height="14" rx="1.7"/><rect x="378" y="490" width="14" height="14" rx="1.7"/><rect x="392" y="490" width="14" height="14" rx="1.7"/><rect x="434" y="490" width="14" height="14" rx="1.7"/><rect x="490" y="490" width="14" height="14" rx="1.7"/><rect x="504" y="490" width="14" height="14" rx="1.7"/><rect x="518" y="490" width="14" height="14" rx="1.7"/><rect x="532" y="490" width="14" height="14" rx="1.7"/><rect x="546" y="490" width="14" height="14" rx="1.7"/><rect x="574" y="490" width="14" height="14" rx="1.7"/><rect x="56" y="504" width="14" height="14" rx="1.7"/><rect x="98" y="504" width="14" height="14" rx="1.7"/><rect x="140" y="504" width="14" height="14" rx="1.7"/><rect x="196" y="504" width="14" height="14" rx="1.7"/><rect x="210" y="504" width="14" height="14" rx="1.7"/><rect x="224" y="504" width="14" height="14" rx="1.7"/><rect x="238" y="504" width="14" height="14" rx="1.7"/><rect x="322" y="504" width="14" height="14" rx="1.7"/><rect x="336" y="504" width="14" height="14" rx="1.7"/><rect x="378" y="504" width="14" height="14" rx="1.7"/><rect x="406" y="504" width="14" height="14" rx="1.7"/><rect x="420" y="504" width="14" height="14" rx="1.7"/><rect x="434" y="504" width="14" height="14" rx="1.7"/><rect x="448" y="504" width="14" height="14" rx="1.7"/><rect x="462" y="504" width="14" height="14" rx="1.7"/><rect x="476" y="504" width="14" height="14" rx="1.7"/><rect x="490" y="504" width="14" height="14" rx="1.7"/><rect x="504" y="504" width="14" height="14" rx="1.7"/><rect x="518" y="504" width="14" height="14" rx="1.7"/><rect x="532" y="504" width="14" height="14" rx="1.7"/><rect x="546" y="504" width="14" height="14" rx="1.7"/><rect x="560" y="504" width="14" height="14" rx="1.7"/><rect x="588" y="504" width="14" height="14" rx="1.7"/><rect x="602" y="504" width="14" height="14" rx="1.7"/><rect x="616" y="504" width="14" height="14" rx="1.7"/><rect x="168" y="518" width="14" height="14" rx="1.7"/><rect x="182" y="518" width="14" height="14" rx="1.7"/><rect x="238" y="518" width="14" height="14" rx="1.7"/><rect x="252" y="518" width="14" height="14" rx="1.7"/><rect x="294" y="518" width="14" height="14" rx="1.7"/><rect x="392" y="518" width="14" height="14" rx="1.7"/><rect x="406" y="518" width="14" height="14" rx="1.7"/><rect x="462" y="518" width="14" height="14" rx="1.7"/><rect x="476" y="518" width="14" height="14" rx="1.7"/><rect x="504" y="518" width="14" height="14" rx="1.7"/><rect x="560" y="518" width="14" height="14" rx="1.7"/><rect x="574" y="518" width="14" height="14" rx="1.7"/><rect x="602" y="518" width="14" height="14" rx="1.7"/><rect x="616" y="518" width="14" height="14" rx="1.7"/><rect x="56" y="532" width="14" height="14" rx="1.7"/><rect x="70" y="532" width="14" height="14" rx="1.7"/><rect x="84" y="532" width="14" height="14" rx="1.7"/><rect x="98" y="532" width="14" height="14" rx="1.7"/><rect x="112" y="532" width="14" height="14" rx="1.7"/><rect x="126" y="532" width="14" height="14" rx="1.7"/><rect x="140" y="532" width="14" height="14" rx="1.7"/><rect x="196" y="532" width="14" height="14" rx="1.7"/><rect x="224" y="532" width="14" height="14" rx="1.7"/><rect x="238" y="532" width="14" height="14" rx="1.7"/><rect x="322" y="532" width="14" height="14" rx="1.7"/><rect x="336" y="532" width="14" height="14" rx="1.7"/><rect x="350" y="532" width="14" height="14" rx="1.7"/><rect x="406" y="532" width="14" height="14" rx="1.7"/><rect x="434" y="532" width="14" height="14" rx="1.7"/><rect x="448" y="532" width="14" height="14" rx="1.7"/><rect x="462" y="532" width="14" height="14" rx="1.7"/><rect x="490" y="532" width="14" height="14" rx="1.7"/><rect x="504" y="532" width="14" height="14" rx="1.7"/><rect x="532" y="532" width="14" height="14" rx="1.7"/><rect x="560" y="532" width="14" height="14" rx="1.7"/><rect x="574" y="532" width="14" height="14" rx="1.7"/><rect x="56" y="546" width="14" height="14" rx="1.7"/><rect x="140" y="546" width="14" height="14" rx="1.7"/><rect x="210" y="546" width="14" height="14" rx="1.7"/><rect x="224" y="546" width="14" height="14" rx="1.7"/><rect x="280" y="546" width="14" height="14" rx="1.7"/><rect x="294" y="546" width="14" height="14" rx="1.7"/><rect x="336" y="546" width="14" height="14" rx="1.7"/><rect x="420" y="546" width="14" height="14" rx="1.7"/><rect x="448" y="546" width="14" height="14" rx="1.7"/><rect x="462" y="546" width="14" height="14" rx="1.7"/><rect x="476" y="546" width="14" height="14" rx="1.7"/><rect x="490" y="546" width="14" height="14" rx="1.7"/><rect x="504" y="546" width="14" height="14" rx="1.7"/><rect x="560" y="546" width="14" height="14" rx="1.7"/><rect x="574" y="546" width="14" height="14" rx="1.7"/><rect x="602" y="546" width="14" height="14" rx="1.7"/><rect x="616" y="546" width="14" height="14" rx="1.7"/><rect x="56" y="560" width="14" height="14" rx="1.7"/><rect x="84" y="560" width="14" height="14" rx="1.7"/><rect x="98" y="560" width="14" height="14" rx="1.7"/><rect x="112" y="560" width="14" height="14" rx="1.7"/><rect x="140" y="560" width="14" height="14" rx="1.7"/><rect x="168" y="560" width="14" height="14" rx="1.7"/><rect x="210" y="560" width="14" height="14" rx="1.7"/><rect x="238" y="560" width="14" height="14" rx="1.7"/><rect x="252" y="560" width="14" height="14" rx="1.7"/><rect x="266" y="560" width="14" height="14" rx="1.7"/><rect x="280" y="560" width="14" height="14" rx="1.7"/><rect x="308" y="560" width="14" height="14" rx="1.7"/><rect x="336" y="560" width="14" height="14" rx="1.7"/><rect x="350" y="560" width="14" height="14" rx="1.7"/><rect x="364" y="560" width="14" height="14" rx="1.7"/><rect x="378" y="560" width="14" height="14" rx="1.7"/><rect x="392" y="560" width="14" height="14" rx="1.7"/><rect x="406" y="560" width="14" height="14" rx="1.7"/><rect x="504" y="560" width="14" height="14" rx="1.7"/><rect x="518" y="560" width="14" height="14" rx="1.7"/><rect x="532" y="560" width="14" height="14" rx="1.7"/><rect x="546" y="560" width="14" height="14" rx="1.7"/><rect x="560" y="560" width="14" height="14" rx="1.7"/><rect x="588" y="560" width="14" height="14" rx="1.7"/><rect x="616" y="560" width="14" height="14" rx="1.7"/><rect x="56" y="574" width="14" height="14" rx="1.7"/><rect x="84" y="574" width="14" height="14" rx="1.7"/><rect x="98" y="574" width="14" height="14" rx="1.7"/><rect x="112" y="574" width="14" height="14" rx="1.7"/><rect x="140" y="574" width="14" height="14" rx="1.7"/><rect x="168" y="574" width="14" height="14" rx="1.7"/><rect x="196" y="574" width="14" height="14" rx="1.7"/><rect x="210" y="574" width="14" height="14" rx="1.7"/><rect x="238" y="574" width="14" height="14" rx="1.7"/><rect x="252" y="574" width="14" height="14" rx="1.7"/><rect x="308" y="574" width="14" height="14" rx="1.7"/><rect x="350" y="574" width="14" height="14" rx="1.7"/><rect x="364" y="574" width="14" height="14" rx="1.7"/><rect x="378" y="574" width="14" height="14" rx="1.7"/><rect x="392" y="574" width="14" height="14" rx="1.7"/><rect x="448" y="574" width="14" height="14" rx="1.7"/><rect x="476" y="574" width="14" height="14" rx="1.7"/><rect x="490" y="574" width="14" height="14" rx="1.7"/><rect x="518" y="574" width="14" height="14" rx="1.7"/><rect x="546" y="574" width="14" height="14" rx="1.7"/><rect x="574" y="574" width="14" height="14" rx="1.7"/><rect x="588" y="574" width="14" height="14" rx="1.7"/><rect x="602" y="574" width="14" height="14" rx="1.7"/><rect x="616" y="574" width="14" height="14" rx="1.7"/><rect x="56" y="588" width="14" height="14" rx="1.7"/><rect x="84" y="588" width="14" height="14" rx="1.7"/><rect x="98" y="588" width="14" height="14" rx="1.7"/><rect x="112" y="588" width="14" height="14" rx="1.7"/><rect x="140" y="588" width="14" height="14" rx="1.7"/><rect x="168" y="588" width="14" height="14" rx="1.7"/><rect x="182" y="588" width="14" height="14" rx="1.7"/><rect x="196" y="588" width="14" height="14" rx="1.7"/><rect x="238" y="588" width="14" height="14" rx="1.7"/><rect x="308" y="588" width="14" height="14" rx="1.7"/><rect x="336" y="588" width="14" height="14" rx="1.7"/><rect x="350" y="588" width="14" height="14" rx="1.7"/><rect x="378" y="588" width="14" height="14" rx="1.7"/><rect x="406" y="588" width="14" height="14" rx="1.7"/><rect x="420" y="588" width="14" height="14" rx="1.7"/><rect x="434" y="588" width="14" height="14" rx="1.7"/><rect x="448" y="588" width="14" height="14" rx="1.7"/><rect x="476" y="588" width="14" height="14" rx="1.7"/><rect x="518" y="588" width="14" height="14" rx="1.7"/><rect x="532" y="588" width="14" height="14" rx="1.7"/><rect x="546" y="588" width="14" height="14" rx="1.7"/><rect x="560" y="588" width="14" height="14" rx="1.7"/><rect x="588" y="588" width="14" height="14" rx="1.7"/><rect x="602" y="588" width="14" height="14" rx="1.7"/><rect x="56" y="602" width="14" height="14" rx="1.7"/><rect x="140" y="602" width="14" height="14" rx="1.7"/><rect x="182" y="602" width="14" height="14" rx="1.7"/><rect x="210" y="602" width="14" height="14" rx="1.7"/><rect x="252" y="602" width="14" height="14" rx="1.7"/><rect x="266" y="602" width="14" height="14" rx="1.7"/><rect x="294" y="602" width="14" height="14" rx="1.7"/><rect x="322" y="602" width="14" height="14" rx="1.7"/><rect x="378" y="602" width="14" height="14" rx="1.7"/><rect x="392" y="602" width="14" height="14" rx="1.7"/><rect x="406" y="602" width="14" height="14" rx="1.7"/><rect x="420" y="602" width="14" height="14" rx="1.7"/><rect x="434" y="602" width="14" height="14" rx="1.7"/><rect x="448" y="602" width="14" height="14" rx="1.7"/><rect x="504" y="602" width="14" height="14" rx="1.7"/><rect x="532" y="602" width="14" height="14" rx="1.7"/><rect x="560" y="602" width="14" height="14" rx="1.7"/><rect x="574" y="602" width="14" height="14" rx="1.7"/><rect x="588" y="602" width="14" height="14" rx="1.7"/><rect x="602" y="602" width="14" height="14" rx="1.7"/><rect x="56" y="616" width="14" height="14" rx="1.7"/><rect x="70" y="616" width="14" height="14" rx="1.7"/><rect x="84" y="616" width="14" height="14" rx="1.7"/><rect x="98" y="616" width="14" height="14" rx="1.7"/><rect x="112" y="616" width="14" height="14" rx="1.7"/><rect x="126" y="616" width="14" height="14" rx="1.7"/><rect x="140" y="616" width="14" height="14" rx="1.7"/><rect x="182" y="616" width="14" height="14" rx="1.7"/><rect x="210" y="616" width="14" height="14" rx="1.7"/><rect x="252" y="616" width="14" height="14" rx="1.7"/><rect x="280" y="616" width="14" height="14" rx="1.7"/><rect x="308" y="616" width="14" height="14" rx="1.7"/><rect x="322" y="616" width="14" height="14" rx="1.7"/><rect x="364" y="616" width="14" height="14" rx="1.7"/><rect x="378" y="616" width="14" height="14" rx="1.7"/><rect x="392" y="616" width="14" height="14" rx="1.7"/><rect x="406" y="616" width="14" height="14" rx="1.7"/><rect x="434" y="616" width="14" height="14" rx="1.7"/><rect x="462" y="616" width="14" height="14" rx="1.7"/><rect x="490" y="616" width="14" height="14" rx="1.7"/><rect x="518" y="616" width="14" height="14" rx="1.7"/><rect x="532" y="616" width="14" height="14" rx="1.7"/><rect x="546" y="616" width="14" height="14" rx="1.7"/><rect x="560" y="616" width="14" height="14" rx="1.7"/></g>
</svg>